<svg xmlns="http://www.w3.org/2000/svg" width="139.764" height="31.304" viewBox="0 0 139.764 31.304">
  <g id="Group_2" data-name="Group 2" transform="translate(-11.634 -48.298)">
    <g id="Group_1" data-name="Group 1">
      <path id="Path_8" data-name="Path 8" d="M7.98.28a7.06,7.06,0,0,0,6.2-3.16L11.26-4.96A3.824,3.824,0,0,1,8.1-3.26,3.463,3.463,0,0,1,4.76-7v-.04a3.462,3.462,0,0,1,3.34-3.7A3.748,3.748,0,0,1,11.16-9.1l2.92-2.26a6.855,6.855,0,0,0-5.94-2.92A7.192,7.192,0,0,0,.76-7v.04A7.109,7.109,0,0,0,7.98.28ZM20.94.26a5.763,5.763,0,0,0,6-5.66v-.04a5.708,5.708,0,0,0-5.96-5.62,5.763,5.763,0,0,0-6,5.66v.04A5.708,5.708,0,0,0,20.94.26Zm.04-3.22a2.345,2.345,0,0,1-2.3-2.44v-.04a2.266,2.266,0,0,1,2.26-2.4,2.345,2.345,0,0,1,2.3,2.44v.04A2.266,2.266,0,0,1,20.98-2.96ZM34.06.26a5.763,5.763,0,0,0,6-5.66v-.04a5.708,5.708,0,0,0-5.96-5.62,5.763,5.763,0,0,0-6,5.66v.04A5.708,5.708,0,0,0,34.06.26Zm.04-3.22A2.345,2.345,0,0,1,31.8-5.4v-.04a2.266,2.266,0,0,1,2.26-2.4,2.345,2.345,0,0,1,2.3,2.44v.04A2.266,2.266,0,0,1,34.1-2.96ZM41.74,0h3.8V-14.6h-3.8Zm10.3.24a4.011,4.011,0,0,0,3.3-1.68V0h3.8V-14.6h-3.8v5.1a4.135,4.135,0,0,0-3.32-1.56c-2.56,0-4.76,2.14-4.76,5.66v.04C47.26-1.9,49.48.24,52.04.24ZM53.2-2.94A2.3,2.3,0,0,1,50.98-5.4v-.04A2.285,2.285,0,0,1,53.2-7.88a2.282,2.282,0,0,1,2.2,2.44v.04A2.288,2.288,0,0,1,53.2-2.94ZM66.7.26a5.763,5.763,0,0,0,6-5.66v-.04a5.708,5.708,0,0,0-5.96-5.62,5.763,5.763,0,0,0-6,5.66v.04A5.708,5.708,0,0,0,66.7.26Zm.04-3.22a2.345,2.345,0,0,1-2.3-2.44v-.04a2.266,2.266,0,0,1,2.26-2.4A2.345,2.345,0,0,1,69-5.4v.04A2.266,2.266,0,0,1,66.74-2.96ZM76.32.08h3.26l1.8-5.62L83.14.08h3.28l3.34-10.9H86.1L84.64-5.34l-1.68-5.52H79.82L78.16-5.38l-1.42-5.44H73.02ZM91.02,0h3.8V-5.86a1.6,1.6,0,0,1,1.6-1.82c.9,0,1.52.64,1.52,1.82V0h3.8V-7.08c0-2.46-1.38-3.98-3.68-3.98A4.013,4.013,0,0,0,94.82-9.3v-1.52h-3.8Z" transform="translate(49 64)" fill="#059fcf"/>
      <path id="Path_7" data-name="Path 7" d="M17.157.6a15.179,15.179,0,0,0,13.33-6.794l-6.278-4.472C22.4-8.471,20.554-7.009,17.415-7.009c-4.214,0-7.181-3.526-7.181-8.041v-.086c0-4.386,2.967-7.955,7.181-7.955,2.881,0,4.859,1.376,6.579,3.526l6.278-4.859C27.606-28.122,23.65-30.7,17.5-30.7A15.463,15.463,0,0,0,1.634-15.05v.086A15.285,15.285,0,0,0,17.157.6Z" transform="translate(10 79)" fill="#059fcf"/>
      <path id="Path_9" data-name="Path 9" d="M7.92-1.089V-4.433H4.576V-2.97H6.281v1.1a2.7,2.7,0,0,1-1.6.462A2.307,2.307,0,0,1,2.354-3.85v-.022a2.313,2.313,0,0,1,2.211-2.4,2.835,2.835,0,0,1,2.013.781L7.645-6.776A4.228,4.228,0,0,0,4.62-7.832,3.952,3.952,0,0,0,.583-3.85v.022A3.854,3.854,0,0,0,4.631.132,5,5,0,0,0,7.92-1.089ZM27.9,0,24.6-7.755H23.034L19.734,0h1.727l.7-1.727h3.256L26.125,0Zm-3.08-3.223H22.77l1.023-2.5ZM47.63,0V-7.7H45.8L43.78-4.444,41.756-7.7H39.93V0h1.661V-4.994l2.145,3.256h.044l2.167-3.289V0ZM62.095,0V-7.7H60.4V0ZM81.708,0V-7.7H80.036v4.741L76.428-7.7H74.866V0h1.672V-4.9L80.267,0ZM101.4-1.089V-4.433H98.054V-2.97h1.7v1.1a2.7,2.7,0,0,1-1.6.462A2.307,2.307,0,0,1,95.832-3.85v-.022a2.313,2.313,0,0,1,2.211-2.4,2.835,2.835,0,0,1,2.013.781l1.067-1.287A4.228,4.228,0,0,0,98.1-7.832,3.952,3.952,0,0,0,94.061-3.85v.022A3.854,3.854,0,0,0,98.109.132,5,5,0,0,0,101.4-1.089Z" transform="translate(50 78)" fill="#707070"/>
      <path id="Union_1" data-name="Union 1" d="M3.467,4.207a2.108,2.108,0,1,1,.872-1L7.887,6.484Z" transform="translate(24.843 61.265)" fill="#707070"/>
    </g>
  </g>
</svg>
